# xmcd
#
# Track frame offsets:
#	150
#	19102
#	39142
#	57577
#	75514
#	95349
#	116256
#	136600
#	156100
#	170020
#	181275
#	203017
#	219770
#	232420
#	249157
#
# Disc length: 3601 seconds
#
# Revision: 1
# Processed by: cddbd v1.4PL0 Copyright (c) Steve Scherf et al.
# Submitted via: audiograbber 1.81.03
#
DISCID=b60e0f0f
DTITLE=Various Artist - 금강제화 컬렉션XVIII
DYEAR=1900
DGENRE=
TTITLE0=해바라기-내마음의 보석상자
TTITLE1=남궁옥분 - 재회
TTITLE2=정태춘 - 촛불
TTITLE3=신형원 - 불씨
TTITLE4=이종용 -  겨울아이
TTITLE5=조동진 - 작은배
TTITLE6=한마음 - 갯바위
TTITLE7=이정선 - 섬소년
TTITLE8=장은아 - 이거리를 생각하세요
TTITLE9=둘다섯 - 밤배
TTITLE10=햇빛촌 - 유리창엔 비
TTITLE11=김만준 - 모모
TTITLE12=박인희 - 모닥불
TTITLE13=한경애 - 모닥불
TTITLE14=샌드페블스 - 나어떡해
EXTD=
EXTT0=
EXTT1=
EXTT2=
EXTT3=
EXTT4=
EXTT5=
EXTT6=
EXTT7=
EXTT8=
EXTT9=
EXTT10=
EXTT11=
EXTT12=
EXTT13=
EXTT14=
PLAYORDER=
